<svg xmlns="http://www.w3.org/2000/svg" width="107.25" viewBox="0 0 107.25 150" height="150" version="1.0"><path fill="#FF914D" d="M 39.191406 121.542969 L 29.378906 131.082031 L 29.378906 6.652344 C 29.371094 6.3125 29.328125 5.980469 29.257812 5.652344 C 29.183594 5.320312 29.078125 5 28.941406 4.691406 C 28.804688 4.382812 28.640625 4.089844 28.449219 3.808594 C 28.253906 3.53125 28.039062 3.277344 27.792969 3.039062 C 27.550781 2.804688 27.289062 2.59375 27.003906 2.410156 C 26.722656 2.222656 26.421875 2.066406 26.109375 1.941406 C 25.796875 1.8125 25.472656 1.71875 25.140625 1.652344 C 24.808594 1.585938 24.472656 1.554688 24.132812 1.554688 C 23.796875 1.554688 23.460938 1.585938 23.128906 1.652344 C 22.796875 1.71875 22.472656 1.8125 22.160156 1.941406 C 21.84375 2.066406 21.546875 2.222656 21.261719 2.410156 C 20.980469 2.59375 20.714844 2.804688 20.472656 3.039062 C 20.230469 3.277344 20.011719 3.53125 19.820312 3.808594 C 19.628906 4.089844 19.464844 4.382812 19.328125 4.691406 C 19.191406 5 19.085938 5.320312 19.011719 5.652344 C 18.9375 5.980469 18.898438 6.3125 18.886719 6.652344 L 18.886719 129.960938 L 9.03125 120.605469 C 8.78125 120.378906 8.507812 120.179688 8.21875 120.007812 C 7.929688 119.832031 7.625 119.6875 7.304688 119.574219 C 6.988281 119.460938 6.660156 119.375 6.328125 119.324219 C 5.992188 119.273438 5.65625 119.253906 5.316406 119.265625 C 4.980469 119.28125 4.644531 119.324219 4.316406 119.402344 C 3.988281 119.480469 3.667969 119.589844 3.359375 119.726562 C 3.050781 119.867188 2.757812 120.035156 2.484375 120.230469 C 2.207031 120.425781 1.953125 120.648438 1.71875 120.890625 C 1.488281 121.136719 1.277344 121.402344 1.097656 121.6875 C 0.914062 121.972656 0.761719 122.269531 0.640625 122.585938 C 0.515625 122.898438 0.421875 123.222656 0.363281 123.554688 C 0.300781 123.886719 0.273438 124.222656 0.277344 124.5625 C 0.28125 124.898438 0.316406 125.234375 0.382812 125.5625 C 0.453125 125.894531 0.554688 126.214844 0.683594 126.527344 C 0.816406 126.839844 0.972656 127.136719 1.164062 127.414062 C 1.351562 127.695312 1.5625 127.957031 1.804688 128.195312 L 21.210938 146.617188 C 21.453125 146.851562 21.71875 147.054688 22 147.238281 C 22.285156 147.417969 22.582031 147.570312 22.894531 147.695312 C 23.207031 147.816406 23.527344 147.910156 23.859375 147.972656 C 24.1875 148.035156 24.523438 148.0625 24.859375 148.0625 C 25.195312 148.058594 25.527344 148.023438 25.855469 147.957031 C 26.1875 147.894531 26.507812 147.796875 26.816406 147.667969 C 27.128906 147.542969 27.425781 147.386719 27.703125 147.199219 C 27.984375 147.015625 28.246094 146.808594 28.488281 146.574219 L 46.511719 129.039062 C 51.457031 124.371094 43.992188 116.722656 39.191406 121.542969 Z M 39.191406 121.542969"/><path fill="#FFA000" d="M 104.703125 62.070312 L 88.5 9.363281 C 88.308594 9.074219 88.097656 8.800781 87.871094 8.535156 C 87.644531 8.273438 87.402344 8.027344 87.144531 7.792969 C 86.890625 7.558594 86.617188 7.34375 86.335938 7.144531 C 86.050781 6.945312 85.753906 6.761719 85.449219 6.597656 C 85.140625 6.433594 84.828125 6.292969 84.503906 6.167969 C 84.179688 6.042969 83.847656 5.9375 83.511719 5.851562 C 83.175781 5.769531 82.832031 5.703125 82.488281 5.664062 C 82.144531 5.621094 81.796875 5.597656 81.449219 5.597656 C 81.101562 5.597656 80.757812 5.621094 80.414062 5.664062 C 80.066406 5.703125 79.726562 5.769531 79.390625 5.851562 C 79.050781 5.9375 78.722656 6.042969 78.398438 6.167969 C 78.074219 6.292969 77.757812 6.433594 77.453125 6.597656 C 77.144531 6.761719 76.851562 6.945312 76.566406 7.144531 C 76.28125 7.34375 76.011719 7.558594 75.753906 7.792969 C 75.496094 8.027344 75.253906 8.273438 75.027344 8.535156 C 74.800781 8.800781 74.59375 9.074219 74.398438 9.363281 L 58.199219 62.070312 C 57.070312 66.714844 67.199219 69.804688 68.691406 65.253906 L 71.796875 54.109375 L 91.105469 54.109375 L 94.292969 65.253906 C 95.648438 69.859375 106.054688 66.578125 104.703125 62.070312 Z M 74.148438 45.5625 L 81.449219 19.835938 L 88.753906 45.5625 Z M 74.148438 45.5625"/><path fill="#1976D2" d="M 98.828125 140.058594 L 63.992188 140.058594 C 60.003906 140.15625 60.164062 135.933594 61.890625 133.269531 L 86.824219 88.351562 L 65.585938 88.351562 C 61.09375 88.234375 60.988281 78.90625 65.585938 78.800781 L 97.484375 78.800781 C 101.554688 78.75 101.273438 82.90625 99.5 85.671875 L 74.648438 130.503906 L 98.828125 130.503906 C 103.410156 130.703125 103.4375 139.859375 98.828125 140.058594 Z M 98.828125 140.058594"/></svg>