<svg xmlns="http://www.w3.org/2000/svg" width="80.25" viewBox="0 0 80.25 39.75" height="39.75" version="1.0"><defs><clipPath id="a"><path d="M 0 0.0585938 L 79.507812 0.0585938 L 79.507812 38.699219 L 0 38.699219 Z M 0 0.0585938"/></clipPath></defs><g clip-path="url(#a)"><path fill="#FFF" d="M 60.8125 14.519531 C 58.804688 12.792969 56.804688 11.058594 54.796875 9.339844 C 51.851562 6.828125 51.765625 5.773438 54.355469 2.851562 C 54.679688 2.488281 55.230469 2.265625 55.441406 1.863281 C 56.324219 0.160156 57.414062 0.625 58.605469 1.4375 C 60.410156 2.660156 62.28125 3.800781 64.039062 5.085938 C 69.015625 8.738281 73.578125 12.855469 77.644531 17.5 C 79.300781 19.394531 79.476562 20.207031 78.097656 22.253906 C 76.78125 24.210938 75.300781 26.132812 73.558594 27.691406 C 72.652344 28.5 71.023438 28.75 69.707031 28.789062 C 65.628906 28.886719 61.574219 29.085938 57.632812 30.226562 C 52.4375 31.738281 47.644531 34.050781 43.414062 37.464844 C 42.066406 38.554688 42.042969 38.515625 40.117188 38.371094 C 41.714844 33.140625 45.816406 30.019531 50.199219 26.398438 C 48.257812 26.148438 46.84375 25.882812 45.421875 25.792969 C 33.8125 24.984375 22.214844 24.984375 10.652344 26.484375 C 7.796875 26.855469 4.976562 27.375 2.441406 28.933594 C 1.894531 29.265625 1.09375 29.175781 0.0078125 29.351562 C 0.570312 27.121094 0.988281 25.425781 1.4375 23.730469 C 2.410156 20.085938 4.777344 17.539062 8.277344 16.488281 C 12.339844 15.273438 16.519531 14.277344 20.71875 13.75 C 26.121094 13.074219 31.589844 12.832031 37.039062 12.625 C 44.507812 12.34375 51.882812 13.394531 59.199219 14.800781 C 59.640625 14.882812 60.097656 14.90625 60.539062 14.960938 C 60.628906 14.816406 60.722656 14.664062 60.8125 14.519531 Z M 60.8125 14.519531"/></g></svg>