<svg xmlns="http://www.w3.org/2000/svg" width="39.75" viewBox="0 0 39.75 39.75" height="39.75" version="1.0"><defs><clipPath id="a"><path d="M 0 10.03125 L 39.5 10.03125 L 39.5 29.53125 L 0 29.53125 Z M 0 10.03125"/></clipPath><clipPath id="b"><path d="M 10 0 L 39.449219 0 L 39.449219 29 L 10 29 Z M 10 0"/></clipPath><clipPath id="c"><path d="M 0 27 L 13 27 L 13 39.5 L 0 39.5 Z M 0 27"/></clipPath></defs><g clip-path="url(#a)"><path fill="#FFF" d="M 30.402344 17.328125 C 29.398438 16.457031 28.398438 15.582031 27.394531 14.714844 C 25.921875 13.445312 25.882812 12.914062 27.175781 11.441406 C 27.339844 11.253906 27.613281 11.144531 27.71875 10.941406 C 28.160156 10.082031 28.703125 10.316406 29.300781 10.726562 C 30.203125 11.34375 31.136719 11.917969 32.015625 12.566406 C 34.503906 14.410156 36.785156 16.488281 38.816406 18.832031 C 39.648438 19.789062 39.734375 20.199219 39.046875 21.230469 C 38.386719 22.21875 37.644531 23.1875 36.777344 23.976562 C 36.324219 24.382812 35.507812 24.507812 34.851562 24.527344 C 32.8125 24.578125 30.785156 24.679688 28.8125 25.253906 C 26.214844 26.019531 23.820312 27.183594 21.703125 28.90625 C 21.03125 29.457031 21.019531 29.4375 20.058594 29.363281 C 20.855469 26.722656 22.90625 25.148438 25.097656 23.324219 C 24.128906 23.195312 23.421875 23.0625 22.707031 23.015625 C 16.902344 22.609375 11.105469 22.609375 5.324219 23.367188 C 3.898438 23.554688 2.488281 23.816406 1.222656 24.601562 C 0.945312 24.769531 0.546875 24.722656 0.00390625 24.8125 C 0.285156 23.6875 0.496094 22.832031 0.71875 21.976562 C 1.207031 20.136719 2.390625 18.851562 4.136719 18.320312 C 6.167969 17.707031 8.257812 17.203125 10.359375 16.941406 C 13.058594 16.597656 15.792969 16.476562 18.515625 16.371094 C 22.253906 16.230469 25.9375 16.757812 29.597656 17.46875 C 29.816406 17.511719 30.046875 17.523438 30.265625 17.550781 C 30.3125 17.476562 30.359375 17.402344 30.402344 17.328125 Z M 30.402344 17.328125"/></g><g clip-path="url(#b)"><path d="M 39.445312 14.210938 C 39.445312 6.394531 33.039062 0.0351562 25.160156 0.0351562 C 17.28125 0.0351562 10.875 6.394531 10.875 14.210938 C 10.875 22.027344 17.28125 28.386719 25.160156 28.386719 C 33.039062 28.386719 39.445312 22.027344 39.445312 14.210938 Z M 13.117188 14.210938 C 13.117188 7.621094 18.519531 2.261719 25.160156 2.261719 C 31.800781 2.261719 37.199219 7.621094 37.199219 14.210938 C 37.199219 20.800781 31.800781 26.160156 25.160156 26.160156 C 18.519531 26.160156 13.117188 20.800781 13.117188 14.210938 Z M 13.117188 14.210938"/></g><path d="M 12.847656 28.414062 L 15.371094 25.910156 C 14.617188 25.289062 13.925781 24.597656 13.304688 23.847656 L 10.742188 26.386719 C 11.207031 26.550781 11.644531 26.8125 12.015625 27.183594 L 12.089844 27.253906 C 12.425781 27.589844 12.683594 27.984375 12.847656 28.414062 Z M 12.847656 28.414062"/><g clip-path="url(#c)"><path d="M 11.347656 31.269531 C 11.789062 30.832031 12.03125 30.25 12.03125 29.628906 C 12.03125 29.003906 11.789062 28.421875 11.347656 27.988281 L 11.277344 27.917969 C 10.839844 27.480469 10.25 27.242188 9.625 27.242188 C 9 27.242188 8.410156 27.480469 7.972656 27.917969 L 0.375 35.457031 C -0.0664062 35.890625 -0.308594 36.476562 -0.308594 37.097656 C -0.308594 37.71875 -0.0664062 38.300781 0.375 38.738281 L 0.445312 38.808594 C 1.355469 39.710938 2.839844 39.710938 3.75 38.808594 Z M 11.347656 31.269531"/></g></svg>