<svg xmlns="http://www.w3.org/2000/svg" width="150" viewBox="0 0 150 150" height="150" version="1.0"><defs><clipPath id="a"><path d="M 111 1 L 125 1 L 125 141.75 L 111 141.75 Z M 111 1"/></clipPath></defs><g clip-path="url(#a)"><path fill="#008037" d="M 117.613281 142.039062 C 114.082031 142.039062 111.222656 139.179688 111.222656 135.648438 L 111.222656 7.808594 C 111.222656 4.277344 114.082031 1.414062 117.613281 1.414062 C 121.144531 1.414062 124.003906 4.277344 124.003906 7.808594 L 124.003906 135.648438 C 124.003906 139.179688 121.144531 142.039062 117.613281 142.039062 Z M 117.613281 142.039062" fill-rule="evenodd"/></g><path fill="#008037" d="M 147.703125 37.894531 C 145.207031 40.390625 141.15625 40.390625 138.660156 37.894531 L 117.613281 16.847656 L 96.566406 37.894531 C 94.070312 40.390625 90.023438 40.390625 87.527344 37.894531 C 85.03125 35.398438 85.03125 31.351562 87.527344 28.855469 L 113.09375 3.289062 C 115.589844 0.789062 119.636719 0.789062 122.132812 3.289062 L 147.703125 28.855469 C 150.199219 31.351562 150.199219 35.398438 147.703125 37.894531 Z M 147.703125 37.894531" fill-rule="evenodd"/><path fill="#8B98A6" d="M 98.4375 127.125 C 98.4375 130.65625 95.574219 133.515625 92.046875 133.515625 L 57.953125 133.515625 C 54.425781 133.515625 51.5625 130.65625 51.5625 127.125 C 51.5625 123.59375 54.425781 120.734375 57.953125 120.734375 L 92.046875 120.734375 C 95.574219 120.734375 98.4375 123.59375 98.4375 127.125 Z M 98.4375 127.125" fill-rule="evenodd"/><path fill="#8B98A6" d="M 98.4375 93.035156 C 98.4375 96.5625 95.574219 99.425781 92.046875 99.425781 L 32.386719 99.425781 C 28.855469 99.425781 25.996094 96.5625 25.996094 93.035156 C 25.996094 89.503906 28.855469 86.640625 32.386719 86.640625 L 92.046875 86.640625 C 95.574219 86.640625 98.4375 89.503906 98.4375 93.035156 Z M 98.4375 93.035156" fill-rule="evenodd"/><path fill="#8B98A6" d="M 98.4375 58.941406 C 98.4375 62.472656 95.574219 65.335938 92.046875 65.335938 L 6.816406 65.335938 C 3.289062 65.335938 0.425781 62.472656 0.425781 58.941406 C 0.425781 55.414062 3.289062 52.550781 6.816406 52.550781 L 92.046875 52.550781 C 95.574219 52.550781 98.4375 55.414062 98.4375 58.941406 Z M 98.4375 58.941406" fill-rule="evenodd"/></svg>