<svg xmlns="http://www.w3.org/2000/svg" width="150" viewBox="0 0 150 150" height="150" version="1.0"><defs><clipPath id="a"><path d="M 51 76 L 149.984375 76 L 149.984375 90 L 51 90 Z M 51 76"/></clipPath></defs><path fill="#004AAD" d="M 32.371094 -0.289062 C 35.902344 -0.289062 38.765625 2.570312 38.765625 6.101562 L 38.765625 133.941406 C 38.765625 137.472656 35.902344 140.335938 32.371094 140.335938 C 28.84375 140.335938 25.980469 137.472656 25.980469 133.941406 L 25.980469 6.101562 C 25.980469 2.570312 28.84375 -0.289062 32.371094 -0.289062 Z M 32.371094 -0.289062" fill-rule="evenodd"/><path fill="#004AAD" d="M 2.285156 103.855469 C 4.78125 101.359375 8.828125 101.359375 11.324219 103.855469 L 32.371094 124.902344 L 53.421875 103.855469 C 55.917969 101.359375 59.964844 101.359375 62.460938 103.855469 C 64.957031 106.351562 64.957031 110.398438 62.460938 112.894531 L 36.890625 138.460938 C 34.394531 140.960938 30.347656 140.960938 27.851562 138.460938 L 2.285156 112.894531 C -0.210938 110.398438 -0.210938 106.351562 2.285156 103.855469 Z M 2.285156 103.855469" fill-rule="evenodd"/><path fill="#8B98A6" d="M 51.546875 14.625 C 51.546875 11.09375 54.410156 8.234375 57.941406 8.234375 L 92.03125 8.234375 C 95.5625 8.234375 98.421875 11.09375 98.421875 14.625 C 98.421875 18.15625 95.5625 21.015625 92.03125 21.015625 L 57.941406 21.015625 C 54.410156 21.015625 51.546875 18.15625 51.546875 14.625 Z M 51.546875 14.625" fill-rule="evenodd"/><path fill="#8B98A6" d="M 51.546875 48.714844 C 51.546875 45.1875 54.410156 42.324219 57.941406 42.324219 L 117.601562 42.324219 C 121.128906 42.324219 123.992188 45.1875 123.992188 48.714844 C 123.992188 52.246094 121.128906 55.109375 117.601562 55.109375 L 57.941406 55.109375 C 54.410156 55.109375 51.546875 52.246094 51.546875 48.714844 Z M 51.546875 48.714844" fill-rule="evenodd"/><g clip-path="url(#a)"><path fill="#8B98A6" d="M 51.546875 82.808594 C 51.546875 79.277344 54.410156 76.414062 57.941406 76.414062 L 143.167969 76.414062 C 146.699219 76.414062 149.558594 79.277344 149.558594 82.808594 C 149.558594 86.335938 146.699219 89.199219 143.167969 89.199219 L 57.941406 89.199219 C 54.410156 89.199219 51.546875 86.335938 51.546875 82.808594 Z M 51.546875 82.808594" fill-rule="evenodd"/></g></svg>