<svg xmlns="http://www.w3.org/2000/svg" width="42.75" viewBox="0 0 42.75 30" height="30" version="1.0"><defs><clipPath id="a"><path d="M 0.570312 0 L 41.941406 0 L 41.941406 29.03125 L 0.570312 29.03125 Z M 0.570312 0"/></clipPath></defs><g clip-path="url(#a)"><path fill="#FFF" d="M 2.847656 0.0742188 C 2.570312 0.0703125 2.300781 0.117188 2.042969 0.222656 C 1.789062 0.328125 1.558594 0.476562 1.363281 0.671875 C 1.164062 0.867188 1.011719 1.089844 0.90625 1.347656 C 0.800781 1.605469 0.746094 1.871094 0.746094 2.148438 C 0.746094 2.425781 0.800781 2.695312 0.90625 2.949219 C 1.011719 3.207031 1.164062 3.429688 1.363281 3.625 C 1.558594 3.820312 1.789062 3.972656 2.042969 4.074219 C 2.300781 4.179688 2.570312 4.226562 2.847656 4.222656 L 40.109375 4.222656 C 40.386719 4.226562 40.65625 4.179688 40.914062 4.074219 C 41.167969 3.972656 41.398438 3.820312 41.59375 3.625 C 41.792969 3.429688 41.945312 3.207031 42.050781 2.949219 C 42.15625 2.695312 42.210938 2.425781 42.210938 2.148438 C 42.210938 1.871094 42.15625 1.605469 42.050781 1.347656 C 41.945312 1.089844 41.792969 0.867188 41.59375 0.671875 C 41.398438 0.476562 41.167969 0.328125 40.914062 0.222656 C 40.65625 0.117188 40.386719 0.0703125 40.109375 0.0742188 Z M 2.847656 12.527344 C 2.570312 12.523438 2.300781 12.570312 2.042969 12.675781 C 1.789062 12.777344 1.558594 12.929688 1.363281 13.121094 C 1.164062 13.316406 1.011719 13.542969 0.90625 13.800781 C 0.800781 14.054688 0.746094 14.324219 0.746094 14.601562 C 0.746094 14.878906 0.800781 15.144531 0.90625 15.402344 C 1.011719 15.660156 1.164062 15.882812 1.363281 16.078125 C 1.558594 16.273438 1.789062 16.421875 2.042969 16.527344 C 2.300781 16.628906 2.570312 16.679688 2.847656 16.675781 L 40.109375 16.675781 C 40.386719 16.679688 40.65625 16.628906 40.914062 16.527344 C 41.167969 16.421875 41.398438 16.273438 41.59375 16.078125 C 41.792969 15.882812 41.945312 15.660156 42.050781 15.402344 C 42.15625 15.144531 42.210938 14.878906 42.210938 14.601562 C 42.210938 14.324219 42.15625 14.054688 42.050781 13.800781 C 41.945312 13.542969 41.792969 13.316406 41.59375 13.121094 C 41.398438 12.929688 41.167969 12.777344 40.914062 12.675781 C 40.65625 12.570312 40.386719 12.523438 40.109375 12.527344 Z M 2.847656 24.976562 C 2.570312 24.972656 2.300781 25.023438 2.042969 25.128906 C 1.789062 25.230469 1.558594 25.378906 1.363281 25.574219 C 1.164062 25.769531 1.011719 25.996094 0.90625 26.253906 C 0.800781 26.507812 0.746094 26.777344 0.746094 27.054688 C 0.746094 27.332031 0.800781 27.597656 0.90625 27.855469 C 1.011719 28.109375 1.164062 28.335938 1.363281 28.53125 C 1.558594 28.726562 1.789062 28.875 2.042969 28.980469 C 2.300781 29.082031 2.570312 29.132812 2.847656 29.128906 L 40.109375 29.128906 C 40.386719 29.132812 40.65625 29.082031 40.914062 28.980469 C 41.167969 28.875 41.398438 28.726562 41.59375 28.53125 C 41.792969 28.335938 41.945312 28.109375 42.050781 27.855469 C 42.15625 27.597656 42.210938 27.332031 42.210938 27.054688 C 42.210938 26.777344 42.15625 26.507812 42.050781 26.253906 C 41.945312 25.996094 41.792969 25.769531 41.59375 25.574219 C 41.398438 25.378906 41.167969 25.230469 40.914062 25.128906 C 40.65625 25.023438 40.386719 24.972656 40.109375 24.976562 Z M 2.847656 24.976562"/></g></svg>