<svg xmlns="http://www.w3.org/2000/svg" width="107.25" viewBox="0 0 107.25 108" height="108" version="1.0"><defs><clipPath id="a"><path d="M 0 0.375 L 92 0.375 L 92 88 L 0 88 Z M 0 0.375"/></clipPath><clipPath id="b"><path d="M 18.488281 29.886719 L 34.875 29.886719 L 34.875 46.269531 L 18.488281 46.269531 Z M 18.488281 29.886719"/></clipPath></defs><path fill="#FFBE08" d="M 24.070312 1.597656 L 1.207031 86.085938 L 42.546875 61.628906 L 42.546875 61.625 C 42.507812 55.734375 45.5 49.960938 50.945312 46.742188 C 56.390625 43.519531 62.902344 43.664062 68.074219 46.527344 L 89.867188 33.632812 C 76.992188 19.769531 55.6875 16.21875 38.742188 26.242188 C 38.582031 26.332031 38.433594 26.4375 38.277344 26.53125 L 38.113281 25.183594 Z M 24.070312 1.597656"/><path fill="#FF960B" d="M 50.945312 46.742188 C 56.390625 43.519531 62.902344 43.664062 68.074219 46.527344 L 86.78125 35.457031 C 74.136719 27.527344 57.578125 26.75 43.871094 34.855469 C 30.160156 42.964844 22.917969 57.824219 23.84375 72.6875 L 42.546875 61.625 C 42.507812 55.734375 45.5 49.960938 50.945312 46.742188 Z M 50.945312 46.742188"/><path fill="#FFBE08" d="M 76.78125 61.140625 C 76.820312 67.042969 73.828125 72.808594 68.382812 76.027344 C 62.9375 79.25 56.425781 79.101562 51.25 76.242188 L 29.460938 89.136719 C 42.335938 103 63.644531 106.550781 80.582031 96.527344 C 97.53125 86.507812 104.605469 66.164062 98.570312 48.257812 Z M 76.78125 61.140625"/><path fill="#FF960B" d="M 68.382812 76.027344 C 62.9375 79.25 56.425781 79.101562 51.25 76.242188 L 32.542969 87.316406 C 45.1875 95.25 61.75 96.023438 75.453125 87.917969 C 89.164062 79.804688 96.414062 64.949219 95.488281 50.082031 L 76.78125 61.140625 C 76.820312 67.042969 73.828125 72.808594 68.382812 76.027344 Z M 68.382812 76.027344"/><path fill="#33363A" d="M 98.570312 47.035156 C 98.714844 47.035156 98.859375 47.058594 99 47.113281 C 99.347656 47.242188 99.613281 47.511719 99.734375 47.867188 C 106.042969 66.59375 98.253906 87.5 81.210938 97.582031 C 64.167969 107.664062 42.023438 104.460938 28.5625 89.96875 C 28.308594 89.695312 28.195312 89.328125 28.246094 88.960938 C 28.300781 88.597656 28.515625 88.277344 28.835938 88.082031 L 50.625 75.195312 C 51 74.96875 51.46875 74.964844 51.847656 75.175781 C 56.8125 77.925781 62.910156 77.851562 67.757812 74.976562 C 72.605469 72.117188 75.59375 66.816406 75.554688 61.148438 C 75.550781 60.714844 75.777344 60.316406 76.152344 60.09375 L 97.945312 47.207031 C 98.136719 47.085938 98.351562 47.035156 98.570312 47.035156 Z M 59.699219 100.988281 C 66.667969 100.988281 73.679688 99.195312 79.957031 95.476562 C 95.578125 86.242188 102.945312 67.355469 97.863281 50.09375 L 77.996094 61.847656 C 77.796875 68.101562 74.402344 73.894531 69.007812 77.085938 C 63.617188 80.269531 56.890625 80.472656 51.289062 77.644531 L 31.417969 89.398438 C 39.050781 97.003906 49.328125 100.988281 59.699219 100.988281 Z M 59.699219 100.988281"/><path fill="#FFBE08" d="M 51.960938 65.945312 C 49.429688 61.699219 50.835938 56.222656 55.09375 53.703125 C 59.347656 51.191406 64.839844 52.585938 67.367188 56.832031 C 69.894531 61.066406 68.488281 66.554688 64.234375 69.066406 C 59.980469 71.582031 54.484375 70.183594 51.960938 65.945312 Z M 51.960938 65.945312"/><path fill="#FF960B" d="M 67.367188 56.832031 C 69.894531 61.074219 68.488281 66.554688 64.234375 69.066406 C 59.980469 71.582031 54.484375 70.183594 51.960938 65.945312"/><path fill="#33363A" d="M 59.648438 51.230469 C 60.492188 51.230469 61.339844 51.332031 62.183594 51.546875 C 64.816406 52.21875 67.035156 53.875 68.425781 56.207031 C 69.816406 58.539062 70.207031 61.265625 69.535156 63.894531 C 68.859375 66.523438 67.199219 68.734375 64.863281 70.121094 C 62.523438 71.503906 59.785156 71.898438 57.148438 71.226562 C 54.511719 70.554688 52.292969 68.898438 50.910156 66.566406 C 49.515625 64.230469 49.121094 61.507812 49.792969 58.875 C 50.46875 56.25 52.128906 54.042969 54.46875 52.65625 C 56.0625 51.710938 57.839844 51.230469 59.648438 51.230469 Z M 59.675781 69.101562 C 61.050781 69.101562 62.398438 68.730469 63.613281 68.015625 C 65.386719 66.96875 66.644531 65.289062 67.15625 63.292969 C 67.667969 61.300781 67.367188 59.222656 66.316406 57.453125 C 65.261719 55.675781 63.578125 54.425781 61.578125 53.914062 C 59.574219 53.40625 57.492188 53.703125 55.71875 54.757812 C 53.941406 55.804688 52.679688 57.484375 52.167969 59.476562 C 51.660156 61.46875 51.960938 63.550781 53.015625 65.320312 C 54.070312 67.09375 55.753906 68.34375 57.753906 68.855469 C 58.390625 69.023438 59.039062 69.101562 59.675781 69.101562 Z M 59.675781 69.101562"/><path fill="#33363A" d="M 85.246094 45.03125 C 85.664062 45.03125 86.070312 45.246094 86.296875 45.632812 C 86.644531 46.210938 86.453125 46.957031 85.871094 47.304688 L 74.988281 53.742188 C 74.40625 54.085938 73.648438 53.894531 73.304688 53.316406 C 72.960938 52.734375 73.152344 51.984375 73.734375 51.644531 L 84.617188 45.203125 C 84.816406 45.085938 85.035156 45.03125 85.246094 45.03125 Z M 85.246094 45.03125"/><path fill="#33363A" d="M 91.519531 41.328125 C 91.839844 41.328125 92.152344 41.457031 92.386719 41.683594 C 92.613281 41.90625 92.746094 42.222656 92.746094 42.542969 C 92.746094 42.867188 92.613281 43.179688 92.386719 43.410156 C 91.925781 43.855469 91.109375 43.855469 90.652344 43.410156 C 90.421875 43.179688 90.292969 42.867188 90.292969 42.542969 C 90.292969 42.222656 90.421875 41.910156 90.652344 41.683594 C 90.878906 41.457031 91.191406 41.328125 91.519531 41.328125 Z M 91.519531 41.328125"/><path fill="#33363A" d="M 97.230469 37.945312 C 97.550781 37.945312 97.871094 38.074219 98.101562 38.300781 C 98.328125 38.535156 98.460938 38.851562 98.460938 39.167969 C 98.460938 39.484375 98.328125 39.804688 98.101562 40.035156 C 97.632812 40.488281 96.824219 40.488281 96.367188 40.035156 C 96.136719 39.804688 96.003906 39.484375 96.003906 39.167969 C 96.003906 38.851562 96.136719 38.535156 96.355469 38.300781 C 96.59375 38.074219 96.902344 37.945312 97.230469 37.945312 Z M 97.230469 37.945312"/><path fill="#33363A" d="M 44.96875 68.855469 C 45.386719 68.855469 45.796875 69.070312 46.023438 69.453125 C 46.371094 70.035156 46.179688 70.789062 45.597656 71.128906 L 34.707031 77.5625 C 34.125 77.914062 33.375 77.722656 33.027344 77.136719 C 32.683594 76.558594 32.875 75.8125 33.457031 75.46875 L 44.34375 69.027344 C 44.542969 68.910156 44.753906 68.855469 44.96875 68.855469 Z M 44.96875 68.855469"/><path fill="#33363A" d="M 27.8125 79 C 28.132812 79 28.457031 79.136719 28.675781 79.371094 C 28.90625 79.59375 29.035156 79.90625 29.035156 80.226562 C 29.035156 80.550781 28.90625 80.867188 28.675781 81.097656 C 28.226562 81.542969 27.398438 81.554688 26.945312 81.097656 C 26.714844 80.867188 26.585938 80.550781 26.585938 80.226562 C 26.585938 79.90625 26.714844 79.597656 26.945312 79.371094 C 27.171875 79.136719 27.492188 79 27.8125 79 Z M 27.8125 79"/><path fill="#33363A" d="M 22.097656 82.386719 C 22.519531 82.386719 22.925781 82.601562 23.152344 82.980469 C 23.5 83.566406 23.308594 84.3125 22.726562 84.660156 L 6.183594 94.445312 C 5.601562 94.785156 4.84375 94.601562 4.503906 94.019531 C 4.15625 93.433594 4.351562 92.691406 4.929688 92.339844 L 21.472656 82.558594 C 21.667969 82.4375 21.886719 82.386719 22.097656 82.386719 Z M 22.097656 82.386719"/><g clip-path="url(#a)"><path fill="#33363A" d="M 24.070312 0.375 C 24.5 0.375 24.902344 0.601562 25.125 0.972656 L 39.167969 24.5625 C 39.171875 24.574219 39.175781 24.578125 39.179688 24.585938 C 56.074219 15.246094 77.582031 18.609375 90.765625 32.808594 C 91.015625 33.078125 91.132812 33.449219 91.082031 33.8125 C 91.027344 34.175781 90.8125 34.5 90.492188 34.6875 L 68.703125 47.578125 C 68.324219 47.800781 67.863281 47.804688 67.480469 47.59375 C 62.515625 44.84375 56.421875 44.917969 51.570312 47.785156 C 46.726562 50.652344 43.734375 55.953125 43.773438 61.621094 C 43.777344 62.054688 43.546875 62.457031 43.171875 62.675781 L 1.832031 87.136719 C 1.402344 87.390625 0.863281 87.359375 0.464844 87.054688 C 0.0664062 86.757812 -0.109375 86.25 0.0195312 85.765625 L 22.886719 1.28125 C 23.011719 0.800781 23.417969 0.449219 23.902344 0.386719 C 23.960938 0.375 24.015625 0.375 24.070312 0.375 Z M 36.925781 25.589844 L 24.5 4.710938 L 3.171875 83.496094 L 41.328125 60.929688 C 41.527344 54.667969 44.929688 48.875 50.320312 45.683594 C 55.710938 42.5 62.433594 42.296875 68.042969 45.125 L 87.910156 33.375 C 75.148438 20.652344 54.988281 18.054688 39.367188 27.292969 L 38.90625 27.582031 C 38.550781 27.789062 38.109375 27.8125 37.738281 27.632812 C 37.363281 27.449219 37.105469 27.089844 37.058594 26.679688 Z M 36.925781 25.589844"/></g><path fill="#33363A" d="M 25.976562 30.988281 C 26.648438 30.988281 27.199219 31.535156 27.199219 32.210938 L 27.199219 43.835938 C 27.199219 44.515625 26.648438 45.058594 25.976562 45.058594 C 25.296875 45.058594 24.746094 44.515625 24.746094 43.835938 L 24.746094 32.210938 C 24.746094 31.535156 25.296875 30.988281 25.976562 30.988281 Z M 25.976562 30.988281"/><path fill="#33363A" d="M 20.140625 36.804688 L 31.804688 36.804688 C 32.484375 36.804688 33.03125 37.351562 33.03125 38.027344 C 33.03125 38.699219 32.484375 39.246094 31.804688 39.246094 L 20.140625 39.246094 C 19.464844 39.246094 18.914062 38.699219 18.914062 38.027344 C 18.914062 37.351562 19.464844 36.804688 20.140625 36.804688 Z M 20.140625 36.804688"/><g clip-path="url(#b)"><path fill="#FFBE08" d="M 18.488281 31.707031 C 18.488281 30.699219 19.304688 29.886719 20.308594 29.886719 L 33.054688 29.886719 C 34.058594 29.886719 34.875 30.699219 34.875 31.707031 L 34.875 44.449219 C 34.875 45.457031 34.058594 46.269531 33.054688 46.269531 L 20.308594 46.269531 C 19.304688 46.269531 18.488281 45.457031 18.488281 44.449219 Z M 18.488281 31.707031"/></g><g><g><g><path d="M -1.28125 7.203125 L -1.28125 9.53125 L -8.765625 9.53125 L -8.765625 7.203125 Z M -1.28125 7.203125" transform="translate(31.561 31.187)"/></g></g></g></svg>