<svg xmlns="http://www.w3.org/2000/svg" width="107.25" viewBox="0 0 107.25 108" height="108" version="1.0"><defs><clipPath id="a"><path d="M 15 20 L 106.503906 20 L 106.503906 107.625 L 15 107.625 Z M 15 20"/></clipPath></defs><path fill="#FFBE08" d="M 82.097656 106.402344 L 104.960938 21.914062 L 63.621094 46.371094 L 63.621094 46.375 C 63.660156 52.265625 60.667969 58.039062 55.222656 61.257812 C 49.777344 64.480469 43.265625 64.332031 38.09375 61.472656 L 16.300781 74.367188 C 29.175781 88.230469 50.480469 91.78125 67.425781 81.757812 C 67.585938 81.667969 67.734375 81.5625 67.890625 81.46875 L 68.054688 82.816406 Z M 82.097656 106.402344"/><path fill="#FF960B" d="M 55.222656 61.257812 C 49.777344 64.480469 43.265625 64.332031 38.09375 61.472656 L 19.386719 72.542969 C 32.03125 80.472656 48.589844 81.25 62.296875 73.140625 C 76.003906 65.035156 83.25 50.175781 82.324219 35.3125 L 63.621094 46.375 C 63.660156 52.265625 60.667969 58.039062 55.222656 61.257812 Z M 55.222656 61.257812"/><path fill="#FFBE08" d="M 29.386719 46.859375 C 29.347656 40.957031 32.335938 35.191406 37.785156 31.972656 C 43.230469 28.75 49.742188 28.898438 54.917969 31.757812 L 76.707031 18.863281 C 63.832031 5 42.523438 1.449219 25.585938 11.472656 C 8.636719 21.492188 1.5625 41.835938 7.597656 59.742188 Z M 29.386719 46.859375"/><path fill="#FF960B" d="M 37.785156 31.972656 C 43.230469 28.75 49.742188 28.898438 54.917969 31.757812 L 73.625 20.683594 C 60.980469 12.75 44.417969 11.976562 30.714844 20.082031 C 17.003906 28.195312 9.753906 43.050781 10.679688 57.917969 L 29.386719 46.859375 C 29.347656 40.957031 32.335938 35.191406 37.785156 31.972656 Z M 37.785156 31.972656"/><path fill="#33363A" d="M 7.597656 60.964844 C 7.453125 60.964844 7.308594 60.941406 7.167969 60.886719 C 6.820312 60.757812 6.554688 60.488281 6.433594 60.132812 C 0.125 41.40625 7.914062 20.5 24.957031 10.417969 C 42 0.335938 64.144531 3.539062 77.605469 18.03125 C 77.859375 18.304688 77.972656 18.671875 77.921875 19.039062 C 77.867188 19.402344 77.648438 19.722656 77.332031 19.917969 L 55.542969 32.804688 C 55.167969 33.03125 54.699219 33.035156 54.320312 32.824219 C 49.355469 30.074219 43.257812 30.148438 38.410156 33.023438 C 33.5625 35.882812 30.574219 41.183594 30.613281 46.851562 C 30.617188 47.285156 30.390625 47.683594 30.015625 47.90625 L 8.222656 60.792969 C 8.03125 60.914062 7.816406 60.964844 7.597656 60.964844 Z M 46.464844 7.011719 C 39.496094 7.011719 32.488281 8.804688 26.210938 12.523438 C 10.589844 21.757812 3.222656 40.644531 8.300781 57.90625 L 28.171875 46.152344 C 28.371094 39.898438 31.765625 34.105469 37.160156 30.914062 C 42.550781 27.730469 49.277344 27.527344 54.878906 30.355469 L 74.75 18.601562 C 67.117188 10.996094 56.839844 7.011719 46.464844 7.011719 Z M 46.464844 7.011719"/><path fill="#FFBE08" d="M 54.207031 42.054688 C 56.734375 46.300781 55.332031 51.777344 51.074219 54.296875 C 46.820312 56.808594 41.324219 55.414062 38.800781 51.167969 C 36.273438 46.929688 37.679688 41.445312 41.933594 38.933594 C 46.1875 36.417969 51.683594 37.816406 54.207031 42.054688 Z M 54.207031 42.054688"/><path fill="#FF960B" d="M 38.800781 51.167969 C 36.273438 46.925781 37.679688 41.445312 41.933594 38.933594 C 46.1875 36.417969 51.683594 37.816406 54.207031 42.054688"/><path fill="#33363A" d="M 46.519531 56.769531 C 45.675781 56.769531 44.828125 56.667969 43.984375 56.453125 C 41.351562 55.78125 39.128906 54.125 37.742188 51.792969 C 36.351562 49.460938 35.960938 46.734375 36.632812 44.105469 C 37.308594 41.476562 38.96875 39.265625 41.304688 37.878906 C 43.644531 36.496094 46.382812 36.101562 49.019531 36.773438 C 51.65625 37.445312 53.875 39.101562 55.257812 41.433594 C 56.652344 43.769531 57.046875 46.492188 56.371094 49.125 C 55.699219 51.75 54.039062 53.957031 51.699219 55.34375 C 50.105469 56.289062 48.328125 56.769531 46.519531 56.769531 Z M 46.492188 38.898438 C 45.117188 38.898438 43.769531 39.269531 42.554688 39.984375 C 40.777344 41.03125 39.523438 42.710938 39.011719 44.707031 C 38.5 46.699219 38.800781 48.777344 39.851562 50.546875 C 40.90625 52.324219 42.589844 53.574219 44.589844 54.085938 C 46.59375 54.59375 48.675781 54.296875 50.449219 53.242188 C 52.226562 52.195312 53.488281 50.515625 54 48.523438 C 54.507812 46.53125 54.207031 44.449219 53.152344 42.679688 C 52.097656 40.90625 50.414062 39.65625 48.414062 39.144531 C 47.777344 38.976562 47.128906 38.898438 46.492188 38.898438 Z M 46.492188 38.898438"/><path fill="#33363A" d="M 20.921875 62.96875 C 20.503906 62.96875 20.097656 62.753906 19.867188 62.367188 C 19.523438 61.789062 19.714844 61.042969 20.296875 60.695312 L 31.179688 54.257812 C 31.761719 53.914062 32.515625 54.105469 32.863281 54.683594 C 33.207031 55.265625 33.015625 56.015625 32.433594 56.355469 L 21.550781 62.796875 C 21.351562 62.914062 21.132812 62.96875 20.921875 62.96875 Z M 20.921875 62.96875"/><path fill="#33363A" d="M 14.648438 66.671875 C 14.328125 66.671875 14.015625 66.542969 13.78125 66.316406 C 13.554688 66.09375 13.421875 65.777344 13.421875 65.457031 C 13.421875 65.132812 13.554688 64.820312 13.78125 64.589844 C 14.242188 64.144531 15.058594 64.144531 15.515625 64.589844 C 15.746094 64.820312 15.875 65.132812 15.875 65.457031 C 15.875 65.777344 15.746094 66.089844 15.515625 66.316406 C 15.289062 66.542969 14.976562 66.671875 14.648438 66.671875 Z M 14.648438 66.671875"/><path fill="#33363A" d="M 8.9375 70.054688 C 8.617188 70.054688 8.296875 69.925781 8.066406 69.699219 C 7.839844 69.464844 7.707031 69.148438 7.707031 68.832031 C 7.707031 68.515625 7.839844 68.195312 8.066406 67.964844 C 8.535156 67.511719 9.34375 67.511719 9.800781 67.964844 C 10.03125 68.195312 10.164062 68.515625 10.164062 68.832031 C 10.164062 69.148438 10.03125 69.464844 9.8125 69.699219 C 9.574219 69.925781 9.265625 70.054688 8.9375 70.054688 Z M 8.9375 70.054688"/><path fill="#33363A" d="M 61.199219 39.144531 C 60.777344 39.144531 60.371094 38.929688 60.144531 38.546875 C 59.796875 37.964844 59.988281 37.210938 60.570312 36.871094 L 71.460938 30.4375 C 72.042969 30.085938 72.792969 30.277344 73.140625 30.863281 C 73.484375 31.441406 73.292969 32.1875 72.710938 32.53125 L 61.824219 38.972656 C 61.625 39.089844 61.414062 39.144531 61.199219 39.144531 Z M 61.199219 39.144531"/><path fill="#33363A" d="M 78.355469 29 C 78.035156 29 77.710938 28.863281 77.492188 28.628906 C 77.261719 28.40625 77.132812 28.09375 77.132812 27.773438 C 77.132812 27.449219 77.261719 27.132812 77.492188 26.902344 C 77.941406 26.457031 78.769531 26.445312 79.222656 26.902344 C 79.453125 27.132812 79.582031 27.449219 79.582031 27.773438 C 79.582031 28.09375 79.453125 28.402344 79.222656 28.628906 C 78.996094 28.863281 78.675781 29 78.355469 29 Z M 78.355469 29"/><path fill="#33363A" d="M 84.066406 25.613281 C 83.648438 25.613281 83.242188 25.398438 83.015625 25.015625 C 82.667969 24.433594 82.859375 23.6875 83.441406 23.339844 L 99.984375 13.554688 C 100.566406 13.214844 101.320312 13.398438 101.664062 13.980469 C 102.011719 14.566406 101.816406 15.308594 101.238281 15.660156 L 84.695312 25.441406 C 84.5 25.5625 84.28125 25.613281 84.066406 25.613281 Z M 84.066406 25.613281"/><g clip-path="url(#a)"><path fill="#33363A" d="M 82.097656 107.625 C 81.667969 107.625 81.265625 107.398438 81.042969 107.027344 L 67 83.4375 C 66.996094 83.425781 66.992188 83.421875 66.988281 83.414062 C 50.09375 92.753906 28.585938 89.390625 15.402344 75.191406 C 15.152344 74.921875 15.035156 74.550781 15.085938 74.1875 C 15.140625 73.824219 15.355469 73.5 15.675781 73.3125 L 37.464844 60.421875 C 37.839844 60.199219 38.304688 60.195312 38.6875 60.40625 C 43.652344 63.15625 49.746094 63.082031 54.597656 60.214844 C 59.441406 57.347656 62.433594 52.046875 62.394531 46.378906 C 62.390625 45.945312 62.621094 45.542969 62.996094 45.324219 L 104.335938 20.863281 C 104.765625 20.609375 105.304688 20.640625 105.703125 20.945312 C 106.101562 21.242188 106.273438 21.75 106.148438 22.234375 L 83.28125 106.71875 C 83.152344 107.199219 82.75 107.550781 82.265625 107.613281 C 82.207031 107.625 82.152344 107.625 82.097656 107.625 Z M 69.242188 82.410156 L 81.667969 103.289062 L 102.996094 24.503906 L 64.839844 47.070312 C 64.640625 53.332031 61.238281 59.125 55.847656 62.316406 C 50.457031 65.5 43.734375 65.703125 38.125 62.875 L 18.257812 74.625 C 31.019531 87.347656 51.179688 89.945312 66.800781 80.707031 L 67.261719 80.417969 C 67.617188 80.210938 68.058594 80.1875 68.429688 80.367188 C 68.804688 80.550781 69.0625 80.910156 69.109375 81.320312 Z M 69.242188 82.410156"/></g><path fill="#33363A" d="M 80.191406 77.007812 C 79.519531 77.007812 78.96875 76.464844 78.96875 75.789062 L 78.96875 64.164062 C 78.96875 63.484375 79.519531 62.941406 80.191406 62.941406 C 80.871094 62.941406 81.421875 63.484375 81.421875 64.164062 L 81.421875 75.789062 C 81.421875 76.464844 80.871094 77.007812 80.191406 77.007812 Z M 80.191406 77.007812"/><path fill="#33363A" d="M 86.027344 71.195312 L 74.363281 71.195312 C 73.683594 71.195312 73.136719 70.648438 73.136719 69.972656 C 73.136719 69.300781 73.683594 68.753906 74.363281 68.753906 L 86.027344 68.753906 C 86.703125 68.753906 87.253906 69.300781 87.253906 69.972656 C 87.253906 70.648438 86.703125 71.195312 86.027344 71.195312 Z M 86.027344 71.195312"/></svg>