<svg xmlns="http://www.w3.org/2000/svg" width="42.75" viewBox="0 0 42.75 42.75" height="42.75" version="1.0"><defs><clipPath id="a"><path d="M 0 0 L 42.5 0 L 42.5 22 L 0 22 Z M 0 0"/></clipPath><clipPath id="b"><path d="M 0.0234375 0 L 42.5 0 L 42.5 22.199219 L 0.0234375 22.199219 Z M 0.0234375 0"/></clipPath><clipPath id="c"><path d="M 0 21 L 42.5 21 L 42.5 42.5 L 0 42.5 Z M 0 21"/></clipPath><clipPath id="d"><path d="M 0.0234375 21.199219 L 42.5 21.199219 L 42.5 42.5 L 0.0234375 42.5 Z M 0.0234375 21.199219"/></clipPath><clipPath id="e"><path d="M 0 21 L 42.5 21 L 42.5 42.5 L 0 42.5 Z M 0 21"/></clipPath></defs><g clip-path="url(#a)"><path fill="#D9D9D9" d="M 42.246094 21.375 C 42.246094 9.832031 32.902344 0.476562 21.375 0.476562 C 9.847656 0.476562 0.503906 9.832031 0.503906 21.375 C 0.503906 21.484375 0.503906 21.589844 0.507812 21.695312 L 42.246094 21.695312 C 42.246094 21.589844 42.246094 21.484375 42.246094 21.375"/></g><g clip-path="url(#b)"><path fill="#FFF" d="M 0.980469 21.21875 L 41.773438 21.21875 C 41.6875 10.027344 32.570312 0.949219 21.375 0.949219 C 10.179688 0.949219 1.0625 10.027344 0.980469 21.21875 Z M 42.710938 22.171875 L 0.0390625 22.171875 L 0.03125 21.703125 C 0.03125 21.59375 0.0273438 21.484375 0.0273438 21.375 C 0.0273438 18.492188 0.59375 15.691406 1.707031 13.054688 C 2.78125 10.507812 4.320312 8.222656 6.28125 6.261719 C 8.242188 4.296875 10.523438 2.757812 13.066406 1.679688 C 15.699219 0.566406 18.492188 0 21.375 0 C 24.257812 0 27.050781 0.566406 29.683594 1.679688 C 32.226562 2.757812 34.507812 4.296875 36.46875 6.261719 C 38.429688 8.222656 39.96875 10.507812 41.042969 13.054688 C 42.15625 15.691406 42.722656 18.492188 42.722656 21.375 C 42.722656 21.484375 42.71875 21.59375 42.71875 21.703125 L 42.710938 22.171875"/></g><g clip-path="url(#c)"><path fill="#D9D9D9" d="M 0.507812 21.695312 C 0.675781 33.089844 9.953125 42.277344 21.375 42.277344 C 32.796875 42.277344 42.074219 33.089844 42.246094 21.695312 L 0.507812 21.695312"/></g><g clip-path="url(#d)"><path fill="#FFF" d="M 0.992188 22.171875 C 1.414062 33.039062 10.457031 41.800781 21.375 41.800781 C 32.292969 41.800781 41.335938 33.039062 41.757812 22.171875 Z M 21.375 42.75 C 18.519531 42.75 15.75 42.195312 13.136719 41.101562 C 10.613281 40.042969 8.34375 38.527344 6.390625 36.597656 C 4.433594 34.667969 2.890625 32.417969 1.796875 29.90625 C 0.667969 27.3125 0.0742188 24.550781 0.03125 21.703125 L 0.0234375 21.21875 L 42.726562 21.21875 L 42.71875 21.703125 C 42.675781 24.550781 42.082031 27.3125 40.953125 29.90625 C 39.859375 32.417969 38.316406 34.667969 36.363281 36.597656 C 34.40625 38.527344 32.136719 40.042969 29.613281 41.101562 C 27.003906 42.195312 24.230469 42.75 21.375 42.75"/></g><path fill="#D9D9D9" d="M 27.402344 21.375 C 27.402344 24.710938 24.703125 27.414062 21.375 27.414062 C 18.046875 27.414062 15.347656 24.710938 15.347656 21.375 C 15.347656 18.042969 18.046875 15.339844 21.375 15.339844 C 24.703125 15.339844 27.402344 18.042969 27.402344 21.375"/><path fill="#FFF" d="M 21.375 15.695312 C 18.246094 15.695312 15.703125 18.242188 15.703125 21.375 C 15.703125 24.507812 18.246094 27.054688 21.375 27.054688 C 24.503906 27.054688 27.046875 24.507812 27.046875 21.375 C 27.046875 18.242188 24.503906 15.695312 21.375 15.695312 Z M 21.375 27.769531 C 17.855469 27.769531 14.992188 24.902344 14.992188 21.375 C 14.992188 17.851562 17.855469 14.984375 21.375 14.984375 C 24.894531 14.984375 27.757812 17.851562 27.757812 21.375 C 27.757812 24.902344 24.894531 27.769531 21.375 27.769531"/><path fill="#D9D9D9" d="M 26.121094 21.375 C 26.121094 24 23.996094 26.128906 21.375 26.128906 C 18.753906 26.128906 16.628906 24 16.628906 21.375 C 16.628906 18.75 18.753906 16.621094 21.375 16.621094 C 23.996094 16.621094 26.121094 18.75 26.121094 21.375"/><path fill="#FFF" d="M 21.375 16.980469 C 18.953125 16.980469 16.984375 18.953125 16.984375 21.375 C 16.984375 23.800781 18.953125 25.773438 21.375 25.773438 C 23.796875 25.773438 25.765625 23.800781 25.765625 21.375 C 25.765625 18.953125 23.796875 16.980469 21.375 16.980469 Z M 21.375 26.484375 C 18.5625 26.484375 16.273438 24.191406 16.273438 21.375 C 16.273438 18.558594 18.5625 16.265625 21.375 16.265625 C 24.1875 16.265625 26.476562 18.558594 26.476562 21.375 C 26.476562 24.191406 24.1875 26.484375 21.375 26.484375"/><g clip-path="url(#e)"><path fill="#D9D9D9" d="M 21.375 27.472656 C 18.152344 27.472656 15.519531 24.941406 15.355469 21.757812 L 0.507812 21.757812 C 0.675781 33.152344 9.953125 42.335938 21.375 42.335938 C 32.796875 42.335938 42.074219 33.152344 42.246094 21.757812 L 27.394531 21.757812 C 27.230469 24.941406 24.597656 27.472656 21.375 27.472656"/><path fill="#FFF" d="M 0.871094 22.113281 C 1.230469 33.101562 10.351562 41.980469 21.375 41.980469 C 32.398438 41.980469 41.523438 33.101562 41.878906 22.113281 L 27.722656 22.113281 C 27.386719 25.34375 24.660156 27.828125 21.375 27.828125 C 18.089844 27.828125 15.363281 25.34375 15.027344 22.113281 Z M 21.375 42.695312 C 18.535156 42.695312 15.78125 42.140625 13.183594 41.050781 C 10.675781 40 8.417969 38.496094 6.472656 36.574219 C 4.527344 34.65625 2.992188 32.417969 1.90625 29.921875 C 0.785156 27.339844 0.191406 24.597656 0.152344 21.761719 L 0.144531 21.398438 L 15.695312 21.398438 L 15.710938 21.738281 C 15.867188 24.753906 18.355469 27.117188 21.375 27.117188 C 24.394531 27.117188 26.882812 24.753906 27.039062 21.738281 L 27.058594 21.398438 L 42.605469 21.398438 L 42.601562 21.761719 C 42.558594 24.597656 41.96875 27.339844 40.84375 29.921875 C 39.757812 32.417969 38.222656 34.65625 36.277344 36.574219 C 34.332031 38.496094 32.074219 40 29.566406 41.050781 C 26.972656 42.140625 24.214844 42.695312 21.375 42.695312"/></g></svg>