<svg xmlns="http://www.w3.org/2000/svg" width="107.25" viewBox="0 0 107.25 108" height="108" version="1.0"><defs><clipPath id="a"><path d="M 24 6 L 106.503906 6 L 106.503906 88 L 24 88 Z M 24 6"/></clipPath><clipPath id="b"><path d="M 45 6 L 106.503906 6 L 106.503906 88 L 45 88 Z M 45 6"/></clipPath><clipPath id="c"><path d="M 0 6 L 106.503906 6 L 106.503906 59 L 0 59 Z M 0 6"/></clipPath><clipPath id="d"><path d="M 8 78 L 11 78 L 11 92.730469 L 8 92.730469 Z M 8 78"/></clipPath><clipPath id="e"><path d="M 87 0.375 L 90 0.375 L 90 10 L 87 10 Z M 87 0.375"/></clipPath></defs><path fill="#C9E265" d="M 25.207031 57.199219 L 105.320312 7.671875 L 46.71875 68.832031 L 37.183594 86.167969 L 25.207031 57.199219"/><g clip-path="url(#a)"><path stroke-linecap="round" transform="matrix(.04609 0 0 -.04599 -44.796 144.69)" fill="none" stroke-linejoin="round" d="M 1518.954037 1902.478775 L 3257.289702 2979.448483 L 1985.72543 1649.523826 L 1778.827124 1272.554699 Z M 1518.954037 1902.478775" stroke="#313185" stroke-width="45" stroke-miterlimit="10"/></g><path fill="#48C2C6" d="M 46.71875 68.832031 L 78.777344 86.167969 L 105.320312 7.671875 Z M 46.71875 68.832031"/><g clip-path="url(#b)"><path stroke-linecap="round" transform="matrix(.04609 0 0 -.04599 -44.796 144.69)" fill="none" stroke-linejoin="round" d="M 1985.72543 1649.523826 L 2681.347879 1272.554699 L 3257.289702 2979.448483 Z M 1985.72543 1649.523826" stroke="#313185" stroke-width="45" stroke-miterlimit="10"/></g><path stroke-linecap="round" transform="matrix(.04609 0 0 -.04599 -44.796 144.69)" fill="#F14A4D" stroke-linejoin="round" d="M 1985.72543 1649.523826 L 1778.827124 1272.554699 L 2155.583769 1557.447546 Z M 1985.72543 1649.523826" stroke="#313185" stroke-width="45" stroke-miterlimit="10"/><path fill="#48C2C6" d="M 25.207031 57.199219 L 105.320312 7.671875 L 1.050781 44.132812 L 25.207031 57.199219"/><g clip-path="url(#c)"><path stroke-linecap="round" transform="matrix(.04609 0 0 -.04599 -44.796 144.69)" fill="none" stroke-linejoin="round" d="M 1518.954037 1902.478775 L 3257.289702 2979.448483 L 994.80036 2186.60715 Z M 1518.954037 1902.478775" stroke="#313185" stroke-width="45" stroke-miterlimit="10"/></g><path stroke-linecap="round" transform="matrix(.04609 0 0 -.04599 -44.796 144.69)" fill="none" stroke-linejoin="round" d="M 1356.639307 1567.895316 L 1356.639307 1408.800414" stroke="#313185" stroke-width="45" stroke-miterlimit="10"/><path stroke-linecap="round" transform="matrix(.04609 0 0 -.04599 -44.796 144.69)" fill="none" stroke-linejoin="round" d="M 1436.228618 1488.390335 L 1277.049995 1488.390335" stroke="#313185" stroke-width="45" stroke-miterlimit="10"/><g clip-path="url(#d)"><path stroke-linecap="round" transform="matrix(.04609 0 0 -.04599 -44.796 144.69)" fill="none" stroke-linejoin="round" d="M 1178.474522 1408.800414 L 1178.474522 1152.617699" stroke="#313185" stroke-width="45" stroke-miterlimit="10"/></g><path stroke-linecap="round" transform="matrix(.04609 0 0 -.04599 -44.796 144.69)" fill="none" stroke-linejoin="round" d="M 1306.631113 1280.709056 L 1050.402691 1280.709056" stroke="#313185" stroke-width="45" stroke-miterlimit="10"/><path stroke-linecap="round" transform="matrix(.04609 0 0 -.04599 -44.796 144.69)" fill="none" stroke-linejoin="round" d="M 1343.247282 2849.403477 L 1343.247282 2690.308575" stroke="#313185" stroke-width="45" stroke-miterlimit="10"/><path stroke-linecap="round" transform="matrix(.04609 0 0 -.04599 -44.796 144.69)" fill="none" stroke-linejoin="round" d="M 1422.836594 2769.813556 L 1263.74273 2769.813556" stroke="#313185" stroke-width="45" stroke-miterlimit="10"/><path stroke-linecap="round" transform="matrix(.04609 0 0 -.04599 -44.796 144.69)" fill="none" stroke-linejoin="round" d="M 3022.081673 1520.667998 L 3022.081673 1361.488155" stroke="#313185" stroke-width="45" stroke-miterlimit="10"/><path stroke-linecap="round" transform="matrix(.04609 0 0 -.04599 -44.796 144.69)" fill="none" stroke-linejoin="round" d="M 3101.586225 1441.078077 L 2942.492361 1441.078077" stroke="#313185" stroke-width="45" stroke-miterlimit="10"/><g clip-path="url(#e)"><path stroke-linecap="round" transform="matrix(.04609 0 0 -.04599 -44.796 144.69)" fill="none" stroke-linejoin="round" d="M 2887.05955 3115.864079 L 2887.05955 2956.684236" stroke="#313185" stroke-width="45" stroke-miterlimit="10"/></g><path stroke-linecap="round" transform="matrix(.04609 0 0 -.04599 -44.796 144.69)" fill="none" stroke-linejoin="round" d="M 2966.564102 3036.274158 L 2807.470239 3036.274158" stroke="#313185" stroke-width="45" stroke-miterlimit="10"/><path stroke-linecap="round" transform="matrix(.04609 0 0 -.04599 -44.796 144.69)" fill="none" stroke-linejoin="round" d="M 1635.074758 2797.929099 L 1635.074758 2541.746384" stroke="#313185" stroke-width="45" stroke-miterlimit="10"/><path stroke-linecap="round" transform="matrix(.04609 0 0 -.04599 -44.796 144.69)" fill="none" stroke-linejoin="round" d="M 1763.146589 2669.837742 L 1506.918166 2669.837742" stroke="#313185" stroke-width="45" stroke-miterlimit="10"/></svg>