<svg xmlns="http://www.w3.org/2000/svg" width="72.75" viewBox="0 0 72.75 72.75" height="72.75" version="1.0"><defs><clipPath id="a"><path d="M 0 0 L 72.5 0 L 72.5 72.5 L 0 72.5 Z M 0 0"/></clipPath></defs><g clip-path="url(#a)"><path fill="#FFF" d="M 36.375 0 C 16.316406 0 0 16.316406 0 36.375 C 0 47.6875 5.101562 58.132812 13.984375 65.023438 C 19.097656 69.046875 25.183594 71.605469 31.539062 72.417969 C 33.113281 72.640625 34.742188 72.75 36.375 72.75 C 38.007812 72.75 39.636719 72.640625 41.171875 72.421875 C 47.566406 71.605469 53.652344 69.050781 58.757812 65.035156 C 67.652344 58.132812 72.75 47.683594 72.75 36.375 C 72.75 16.316406 56.429688 0 36.375 0 Z M 57.160156 59.539062 L 57.160156 56.015625 C 57.160156 50.925781 47.859375 46.769531 36.375 46.769531 C 24.890625 46.769531 15.589844 50.925781 15.589844 56.015625 L 15.589844 59.539062 C 8.984375 53.664062 5.195312 45.355469 5.195312 36.375 C 5.195312 19.179688 19.179688 5.195312 36.375 5.195312 C 53.570312 5.195312 67.554688 19.179688 67.554688 36.375 C 67.554688 45.347656 63.769531 53.648438 57.160156 59.539062 Z M 57.160156 59.539062"/></g><path fill="#FFF" d="M 49.367188 28.582031 C 49.367188 29.433594 49.28125 30.277344 49.117188 31.113281 C 48.949219 31.953125 48.703125 32.765625 48.378906 33.550781 C 48.050781 34.339844 47.652344 35.089844 47.175781 35.796875 C 46.703125 36.507812 46.164062 37.164062 45.5625 37.765625 C 44.957031 38.371094 44.300781 38.90625 43.59375 39.382812 C 42.882812 39.855469 42.132812 40.257812 41.347656 40.582031 C 40.558594 40.910156 39.746094 41.15625 38.910156 41.320312 C 38.074219 41.488281 37.226562 41.570312 36.375 41.570312 C 35.523438 41.570312 34.675781 41.488281 33.839844 41.320312 C 33.003906 41.15625 32.191406 40.910156 31.402344 40.582031 C 30.617188 40.257812 29.867188 39.855469 29.15625 39.382812 C 28.449219 38.90625 27.792969 38.371094 27.1875 37.765625 C 26.585938 37.164062 26.046875 36.507812 25.574219 35.796875 C 25.097656 35.089844 24.699219 34.339844 24.371094 33.550781 C 24.046875 32.765625 23.800781 31.953125 23.632812 31.113281 C 23.46875 30.277344 23.382812 29.433594 23.382812 28.582031 C 23.382812 27.726562 23.46875 26.882812 23.632812 26.046875 C 23.800781 25.210938 24.046875 24.398438 24.371094 23.609375 C 24.699219 22.820312 25.097656 22.070312 25.574219 21.363281 C 26.046875 20.652344 26.585938 19.996094 27.1875 19.394531 C 27.792969 18.792969 28.449219 18.253906 29.15625 17.777344 C 29.867188 17.304688 30.617188 16.90625 31.402344 16.578125 C 32.191406 16.25 33.003906 16.003906 33.839844 15.839844 C 34.675781 15.671875 35.523438 15.589844 36.375 15.589844 C 37.226562 15.589844 38.074219 15.671875 38.910156 15.839844 C 39.746094 16.003906 40.558594 16.25 41.347656 16.578125 C 42.132812 16.90625 42.882812 17.304688 43.59375 17.777344 C 44.300781 18.253906 44.957031 18.792969 45.5625 19.394531 C 46.164062 19.996094 46.703125 20.652344 47.175781 21.363281 C 47.652344 22.070312 48.050781 22.820312 48.378906 23.609375 C 48.703125 24.398438 48.949219 25.210938 49.117188 26.046875 C 49.28125 26.882812 49.367188 27.726562 49.367188 28.582031 Z M 49.367188 28.582031"/></svg>