<svg xmlns="http://www.w3.org/2000/svg" xmlns:xlink="http://www.w3.org/1999/xlink" width="107.25" viewBox="0 0 107.25 75" height="75" version="1.0"><defs><clipPath id="a"><path d="M 67 28 L 106.503906 28 L 106.503906 73 L 67 73 Z M 67 28"/></clipPath><clipPath id="b"><path d="M 42.925781 0.261719 L 71 0.261719 L 71 74.738281 L 42.925781 74.738281 Z M 42.925781 0.261719"/></clipPath><clipPath id="c"><path d="M 54.414062 42.375 L 64.097656 19.394531 L 67.34375 19.394531 Z M 62.4375 17.320312 L 70.980469 0.265625 L 51.960938 0.265625 L 45.332031 25.992188 L 51.660156 25.992188 L 42.964844 51.433594 L 49.710938 51.433594 L 42.964844 74.746094 L 66.214844 41.769531 L 56.496094 41.769531 L 70.980469 17.320312 Z M 62.4375 17.320312"/></clipPath><clipPath id="d"><path d="M 54.414062 42.375 L 64.097656 19.394531 L 67.34375 19.394531 Z M 62.4375 17.320312 L 70.980469 0.265625 L 51.960938 0.265625 L 45.332031 25.992188 L 51.660156 25.992188 L 42.964844 51.433594 L 49.710938 51.433594 L 42.964844 74.746094 L 66.214844 41.769531 L 56.496094 41.769531 L 70.980469 17.320312 L 62.4375 17.320312"/></clipPath><clipPath id="e"><path d="M 90.875 5.988281 L 45.117188 -7.175781 L 23.070312 69.023438 L 68.828125 82.1875 Z M 90.875 5.988281"/></clipPath><linearGradient x1=".028" gradientTransform="matrix(-25.3666 87.66944 -87.91921 -25.29454 66.26 -3.771)" y1="0" x2=".897" gradientUnits="userSpaceOnUse" y2="0" xlink:type="simple" xlink:actuate="onLoad" id="f" xlink:show="other"><stop stop-color="#F9BF09" offset="0"/><stop stop-color="#F9BE09" offset=".004"/><stop stop-color="#F9BE09" offset=".008"/><stop stop-color="#F9BE09" offset=".016"/><stop stop-color="#F9BD09" offset=".02"/><stop stop-color="#F9BD09" offset=".023"/><stop stop-color="#F9BC09" offset=".031"/><stop stop-color="#FABC09" offset=".039"/><stop stop-color="#F9BB09" offset=".043"/><stop stop-color="#F9BA0A" offset=".047"/><stop stop-color="#F9B90A" offset=".055"/><stop stop-color="#F9B90A" offset=".063"/><stop stop-color="#F9B80A" offset=".07"/><stop stop-color="#F9B80A" offset=".074"/><stop stop-color="#F9B70A" offset=".078"/><stop stop-color="#F9B70A" offset=".086"/><stop stop-color="#F9B60A" offset=".09"/><stop stop-color="#F9B50B" offset=".094"/><stop stop-color="#F9B50B" offset=".102"/><stop stop-color="#F9B40B" offset=".109"/><stop stop-color="#F9B30B" offset=".117"/><stop stop-color="#F9B20B" offset=".125"/><stop stop-color="#F9B10B" offset=".133"/><stop stop-color="#F9B00B" offset=".141"/><stop stop-color="#F8AF0B" offset=".145"/><stop stop-color="#F8AF0B" offset=".148"/><stop stop-color="#F8AF0C" offset=".156"/><stop stop-color="#F8AE0C" offset=".164"/><stop stop-color="#F8AD0C" offset=".172"/><stop stop-color="#F8AC0C" offset=".188"/><stop stop-color="#F8AB0C" offset=".191"/><stop stop-color="#F8AA0C" offset=".195"/><stop stop-color="#F8AA0C" offset=".199"/><stop stop-color="#F8A90C" offset=".203"/><stop stop-color="#F8A90D" offset=".211"/><stop stop-color="#F8A90D" offset=".219"/><stop stop-color="#F8A80D" offset=".227"/><stop stop-color="#F8A70D" offset=".23"/><stop stop-color="#F8A60D" offset=".234"/><stop stop-color="#F8A60D" offset=".242"/><stop stop-color="#F8A50D" offset=".246"/><stop stop-color="#F8A40D" offset=".25"/><stop stop-color="#F8A30D" offset=".254"/><stop stop-color="#F7A30D" offset=".258"/><stop stop-color="#F7A30E" offset=".266"/><stop stop-color="#F7A20E" offset=".27"/><stop stop-color="#F7A20E" offset=".273"/><stop stop-color="#F7A10E" offset=".281"/><stop stop-color="#F7A10E" offset=".289"/><stop stop-color="#F7A00E" offset=".293"/><stop stop-color="#F7A00E" offset=".297"/><stop stop-color="#F79F0E" offset=".301"/><stop stop-color="#F79E0E" offset=".305"/><stop stop-color="#F79E0E" offset=".313"/><stop stop-color="#F79D0F" offset=".316"/><stop stop-color="#F79D0F" offset=".32"/><stop stop-color="#F79D0F" offset=".328"/><stop stop-color="#F79C0F" offset=".344"/><stop stop-color="#F79B0F" offset=".352"/><stop stop-color="#F7990F" offset=".355"/><stop stop-color="#F7990F" offset=".359"/><stop stop-color="#F7980F" offset=".367"/><stop stop-color="#F7970F" offset=".375"/><stop stop-color="#F69610" offset=".391"/><stop stop-color="#F69510" offset=".395"/><stop stop-color="#F69510" offset=".398"/><stop stop-color="#F69410" offset=".402"/><stop stop-color="#F69410" offset=".406"/><stop stop-color="#F69310" offset=".414"/><stop stop-color="#F69210" offset=".422"/><stop stop-color="#F69210" offset=".43"/><stop stop-color="#F69111" offset=".438"/><stop stop-color="#F69111" offset=".441"/><stop stop-color="#F69011" offset=".445"/><stop stop-color="#F68F11" offset=".453"/><stop stop-color="#F68E11" offset=".457"/><stop stop-color="#F68E11" offset=".461"/><stop stop-color="#F68D11" offset=".469"/><stop stop-color="#F68C11" offset=".473"/><stop stop-color="#F68C11" offset=".477"/><stop stop-color="#F68B11" offset=".48"/><stop stop-color="#F68B11" offset=".484"/><stop stop-color="#F68B12" offset=".492"/><stop stop-color="#F58A12" offset=".496"/><stop stop-color="#F58912" offset=".5"/><stop stop-color="#F58812" offset=".504"/><stop stop-color="#F58812" offset=".508"/><stop stop-color="#F58712" offset=".516"/><stop stop-color="#F58712" offset=".523"/><stop stop-color="#F58612" offset=".531"/><stop stop-color="#F58612" offset=".539"/><stop stop-color="#F58513" offset=".547"/><stop stop-color="#F58513" offset=".555"/><stop stop-color="#F58413" offset=".559"/><stop stop-color="#F58313" offset=".563"/><stop stop-color="#F58213" offset=".566"/><stop stop-color="#F58113" offset=".57"/><stop stop-color="#F58113" offset=".578"/><stop stop-color="#F58013" offset=".594"/><stop stop-color="#F58014" offset=".602"/><stop stop-color="#F47E14" offset=".605"/><stop stop-color="#F47E14" offset=".609"/><stop stop-color="#F47D14" offset=".617"/><stop stop-color="#F47C14" offset=".625"/><stop stop-color="#F47B14" offset=".641"/><stop stop-color="#F47A14" offset=".645"/><stop stop-color="#F47A14" offset=".648"/><stop stop-color="#F47914" offset=".656"/><stop stop-color="#F47915" offset=".66"/><stop stop-color="#F47815" offset=".664"/><stop stop-color="#F47815" offset=".672"/><stop stop-color="#F47715" offset=".68"/><stop stop-color="#F47615" offset=".688"/><stop stop-color="#F47515" offset=".695"/><stop stop-color="#F47415" offset=".703"/><stop stop-color="#F47315" offset=".707"/><stop stop-color="#F47315" offset=".711"/><stop stop-color="#F47215" offset=".719"/><stop stop-color="#F37116" offset=".727"/><stop stop-color="#F37016" offset=".73"/><stop stop-color="#F37016" offset=".734"/><stop stop-color="#F37016" offset=".742"/><stop stop-color="#F46F16" offset=".75"/><stop stop-color="#F46E16" offset=".758"/><stop stop-color="#F46D16" offset=".766"/><stop stop-color="#F46D16" offset=".773"/><stop stop-color="#F46C17" offset=".777"/><stop stop-color="#F46B17" offset=".781"/><stop stop-color="#F46B17" offset=".785"/><stop stop-color="#F46A17" offset=".789"/><stop stop-color="#F46A17" offset=".797"/><stop stop-color="#F46A17" offset=".805"/><stop stop-color="#F36917" offset=".813"/><stop stop-color="#F36817" offset=".82"/><stop stop-color="#F36717" offset=".824"/><stop stop-color="#F36717" offset=".828"/><stop stop-color="#F36618" offset=".832"/><stop stop-color="#F36518" offset=".836"/><stop stop-color="#F36418" offset=".84"/><stop stop-color="#F36418" offset=".844"/><stop stop-color="#F36418" offset=".852"/><stop stop-color="#F36318" offset=".855"/><stop stop-color="#F36318" offset=".859"/><stop stop-color="#F36218" offset=".875"/><stop stop-color="#F36118" offset=".879"/><stop stop-color="#F36118" offset=".883"/><stop stop-color="#F36018" offset=".887"/><stop stop-color="#F35F19" offset=".891"/><stop stop-color="#F35F19" offset=".895"/><stop stop-color="#F35E19" offset=".898"/><stop stop-color="#F35E19" offset=".906"/><stop stop-color="#F25D19" offset=".91"/><stop stop-color="#F25D19" offset=".914"/><stop stop-color="#F25C19" offset=".922"/><stop stop-color="#F25C19" offset=".93"/><stop stop-color="#F25B19" offset=".934"/><stop stop-color="#F25A1A" offset=".938"/><stop stop-color="#F25A1A" offset=".945"/><stop stop-color="#F2591A" offset=".953"/><stop stop-color="#F2581A" offset=".961"/><stop stop-color="#F2571A" offset=".969"/><stop stop-color="#F2561A" offset=".977"/><stop stop-color="#F2551A" offset=".98"/><stop stop-color="#F2551A" offset=".984"/><stop stop-color="#F2541B" offset=".988"/><stop stop-color="#F2541B" offset=".992"/><stop stop-color="#F2541B" offset="1"/></linearGradient></defs><path fill="#FFDE59" d="M 0.0195312 28.011719 L 13.957031 28.011719 L 23.667969 58.96875 L 33.253906 28.011719 L 46.78125 28.011719 L 30.761719 71.03125 L 16.3125 71.03125 L 0.0195312 28.011719"/><g clip-path="url(#a)"><path fill="#03989E" d="M 67.34375 57.636719 L 80.027344 56.84375 C 80.300781 58.898438 80.863281 60.464844 81.707031 61.539062 C 83.078125 63.28125 85.039062 64.152344 87.589844 64.152344 C 89.496094 64.152344 90.960938 63.707031 91.992188 62.816406 C 93.019531 61.925781 93.535156 60.894531 93.535156 59.722656 C 93.535156 58.605469 93.046875 57.609375 92.0625 56.726562 C 91.082031 55.847656 88.808594 55.015625 85.238281 54.234375 C 79.390625 52.921875 75.222656 51.179688 72.730469 49.011719 C 70.21875 46.839844 68.964844 44.070312 68.964844 40.707031 C 68.964844 38.496094 69.605469 36.40625 70.890625 34.441406 C 72.175781 32.472656 74.109375 30.929688 76.6875 29.804688 C 79.269531 28.679688 82.804688 28.117188 87.296875 28.117188 C 92.808594 28.117188 97.011719 29.136719 99.90625 31.183594 C 102.800781 33.226562 104.523438 36.480469 105.074219 40.941406 L 92.507812 41.671875 C 92.171875 39.738281 91.46875 38.328125 90.402344 37.449219 C 89.332031 36.566406 87.855469 36.128906 85.972656 36.128906 C 84.421875 36.128906 83.253906 36.457031 82.46875 37.109375 C 81.6875 37.765625 81.292969 38.5625 81.292969 39.5 C 81.292969 40.1875 81.617188 40.804688 82.265625 41.351562 C 82.894531 41.917969 84.382812 42.445312 86.738281 42.933594 C 92.5625 44.1875 96.738281 45.453125 99.257812 46.734375 C 101.78125 48.015625 103.617188 49.605469 104.761719 51.503906 C 105.910156 53.402344 106.484375 55.523438 106.484375 57.871094 C 106.484375 60.628906 105.71875 63.175781 104.1875 65.503906 C 102.660156 67.832031 100.519531 69.59375 97.773438 70.796875 C 95.027344 72 91.5625 72.601562 87.386719 72.601562 C 80.046875 72.601562 74.964844 71.195312 72.140625 68.378906 C 69.316406 65.5625 67.714844 61.980469 67.34375 57.636719"/></g><g clip-path="url(#b)"><g clip-path="url(#c)"><g clip-path="url(#d)"><g clip-path="url(#e)"><path fill="url(#f)" d="M 90.875 5.988281 L 45.117188 -7.175781 L 23.070312 69.015625 L 68.828125 82.179688 Z M 90.875 5.988281"/></g></g></g></g></svg>