<svg xmlns="http://www.w3.org/2000/svg" width="107.25" viewBox="0 0 107.25 150" height="150" version="1.0"><path fill="#FF914D" d="M 13.0625 28.453125 L 22.871094 18.910156 L 22.871094 143.34375 C 22.878906 143.679688 22.921875 144.015625 22.996094 144.34375 C 23.070312 144.675781 23.175781 144.996094 23.3125 145.304688 C 23.445312 145.613281 23.609375 145.90625 23.804688 146.183594 C 23.996094 146.460938 24.214844 146.71875 24.457031 146.957031 C 24.699219 147.191406 24.964844 147.402344 25.246094 147.585938 C 25.53125 147.769531 25.828125 147.925781 26.140625 148.054688 C 26.457031 148.183594 26.777344 148.277344 27.109375 148.34375 C 27.445312 148.40625 27.777344 148.441406 28.117188 148.441406 C 28.457031 148.441406 28.792969 148.40625 29.125 148.34375 C 29.457031 148.277344 29.78125 148.183594 30.09375 148.054688 C 30.40625 147.925781 30.707031 147.769531 30.988281 147.585938 C 31.273438 147.402344 31.535156 147.191406 31.777344 146.957031 C 32.019531 146.71875 32.238281 146.460938 32.429688 146.183594 C 32.625 145.90625 32.789062 145.613281 32.925781 145.304688 C 33.058594 144.996094 33.164062 144.675781 33.238281 144.34375 C 33.3125 144.015625 33.355469 143.679688 33.363281 143.34375 L 33.363281 20.035156 L 43.21875 29.390625 C 43.472656 29.613281 43.742188 29.816406 44.03125 29.988281 C 44.324219 30.160156 44.628906 30.304688 44.945312 30.421875 C 45.265625 30.535156 45.589844 30.617188 45.925781 30.671875 C 46.257812 30.722656 46.59375 30.742188 46.933594 30.726562 C 47.273438 30.714844 47.605469 30.667969 47.933594 30.59375 C 48.265625 30.515625 48.582031 30.40625 48.890625 30.265625 C 49.199219 30.128906 49.492188 29.960938 49.769531 29.765625 C 50.042969 29.570312 50.296875 29.347656 50.53125 29.105469 C 50.765625 28.859375 50.972656 28.59375 51.15625 28.308594 C 51.335938 28.023438 51.488281 27.722656 51.613281 27.410156 C 51.738281 27.09375 51.828125 26.773438 51.890625 26.441406 C 51.953125 26.105469 51.980469 25.773438 51.976562 25.433594 C 51.972656 25.097656 51.9375 24.761719 51.867188 24.429688 C 51.796875 24.101562 51.699219 23.777344 51.566406 23.46875 C 51.4375 23.15625 51.277344 22.859375 51.089844 22.578125 C 50.902344 22.296875 50.6875 22.039062 50.449219 21.796875 L 31.039062 3.375 C 30.796875 3.144531 30.535156 2.9375 30.25 2.757812 C 29.96875 2.578125 29.667969 2.425781 29.355469 2.300781 C 29.042969 2.179688 28.722656 2.085938 28.394531 2.023438 C 28.0625 1.960938 27.730469 1.933594 27.394531 1.933594 C 27.058594 1.9375 26.726562 1.96875 26.394531 2.035156 C 26.066406 2.101562 25.746094 2.199219 25.433594 2.328125 C 25.125 2.453125 24.828125 2.609375 24.546875 2.792969 C 24.265625 2.976562 24.003906 3.1875 23.765625 3.421875 L 5.742188 20.953125 C 0.792969 25.621094 8.257812 33.273438 13.0625 28.453125 Z M 13.0625 28.453125"/><path fill="#1976D2" d="M 97.996094 140.058594 L 63.160156 140.058594 C 59.171875 140.15625 59.332031 135.933594 61.058594 133.269531 L 85.992188 88.351562 L 64.753906 88.351562 C 60.261719 88.234375 60.15625 78.90625 64.753906 78.800781 L 96.652344 78.800781 C 100.722656 78.75 100.441406 82.90625 98.667969 85.671875 L 73.816406 130.503906 L 97.996094 130.503906 C 102.578125 130.703125 102.605469 139.859375 97.996094 140.058594 Z M 97.996094 140.058594"/><path fill="#FFA000" d="M 103.871094 62.070312 L 87.667969 9.363281 C 87.476562 9.074219 87.265625 8.800781 87.039062 8.535156 C 86.8125 8.273438 86.570312 8.027344 86.3125 7.792969 C 86.058594 7.558594 85.785156 7.34375 85.503906 7.144531 C 85.21875 6.945312 84.921875 6.761719 84.617188 6.597656 C 84.308594 6.433594 83.996094 6.292969 83.671875 6.167969 C 83.347656 6.042969 83.015625 5.9375 82.679688 5.851562 C 82.34375 5.769531 82 5.703125 81.65625 5.664062 C 81.3125 5.621094 80.964844 5.597656 80.617188 5.597656 C 80.269531 5.597656 79.925781 5.621094 79.582031 5.664062 C 79.234375 5.703125 78.894531 5.769531 78.558594 5.851562 C 78.21875 5.9375 77.890625 6.042969 77.566406 6.167969 C 77.242188 6.292969 76.925781 6.433594 76.621094 6.597656 C 76.3125 6.761719 76.019531 6.945312 75.734375 7.144531 C 75.449219 7.34375 75.179688 7.558594 74.921875 7.792969 C 74.664062 8.027344 74.421875 8.273438 74.195312 8.535156 C 73.96875 8.800781 73.761719 9.074219 73.566406 9.363281 L 57.367188 62.070312 C 56.238281 66.714844 66.367188 69.804688 67.859375 65.253906 L 70.964844 54.109375 L 90.273438 54.109375 L 93.460938 65.253906 C 94.8125 69.859375 105.222656 66.578125 103.871094 62.070312 Z M 73.316406 45.5625 L 80.617188 19.835938 L 87.921875 45.5625 Z M 73.316406 45.5625"/></svg>