<svg xmlns="http://www.w3.org/2000/svg" version="1.1" xmlns:xlink="http://www.w3.org/1999/xlink" xmlns:svgjs="http://svgjs.com/svgjs" width="233.000000pt" height="233.000000pt"><svg version="1.0" xmlns="http://www.w3.org/2000/svg" width="233.000000pt" height="233.000000pt" viewBox="0 0 233.000000 233.000000" preserveAspectRatio="xMidYMid meet">

<g transform="translate(0.000000,233.000000) scale(0.100000,-0.100000)" fill="#000000" stroke="none">
<path d="M777 2159 c-48 -28 -83 -168 -75 -302 4 -68 8 -83 28 -99 12 -10 31
-18 41 -18 15 0 19 -7 19 -32 0 -26 -10 -43 -50 -81 -41 -40 -66 -71 -115
-144 -1 -2 -33 4 -71 12 -78 17 -134 19 -134 6 0 -4 26 -14 58 -20 31 -6 74
-16 94 -21 35 -10 36 -12 26 -35 -11 -24 -11 -24 -131 -18 -100 5 -119 4 -115
-8 5 -15 73 -26 167 -28 50 -1 53 -2 47 -23 -3 -13 -6 -28 -6 -34 0 -7 -21
-15 -47 -18 -126 -18 -157 -52 -39 -43 72 5 74 5 68 -16 -3 -12 -18 -44 -33
-72 -64 -116 -91 -282 -69 -415 26 -159 96 -287 217 -400 161 -150 393 -223
608 -190 489 74 764 563 555 987 -55 111 -55 111 30 105 111 -8 83 25 -37 43
-47 7 -47 8 -57 48 -6 27 -6 27 46 28 94 2 161 13 166 28 4 12 -15 13 -116 8
-116 -6 -120 -5 -125 15 -4 12 -4 25 -2 28 3 4 43 15 90 25 84 18 112 35 56
35 -28 0 -120 -15 -152 -25 -11 -4 -32 16 -68 65 -29 38 -68 82 -87 96 -26 20
-34 34 -34 58 0 27 5 33 32 41 51 15 60 43 55 175 -5 131 -25 200 -69 233 -23
17 -32 19 -52 9 -46 -21 -115 -172 -131 -289 -6 -48 -4 -54 19 -78 40 -40 31
-46 -31 -23 -86 30 -257 36 -343 10 -36 -11 -73 -23 -82 -27 -27 -11 -22 14 7
37 17 13 25 29 25 52 0 82 -73 271 -118 307 -28 21 -39 23 -65 8z m114 -628
c48 -48 36 -111 -26 -137 -58 -24 -115 14 -115 76 0 82 84 118 141 61z m638
14 c32 -16 41 -33 41 -79 0 -73 -99 -108 -147 -51 -32 37 -30 80 6 116 33 32
58 36 100 14z m-295 -55 c36 -13 32 -26 -10 -40 -43 -15 -127 -9 -149 10 -15
12 -14 15 7 26 27 16 116 18 152 4z m31 -225 c253 -53 425 -260 425 -510 0
-290 -233 -519 -530 -519 -233 0 -430 138 -507 354 -32 92 -32 238 1 331 48
138 133 231 271 299 116 58 216 71 340 45z"></path>
<path d="M813 1503 c-19 -7 -16 -51 4 -62 37 -20 71 27 41 57 -13 13 -24 14
-45 5z"></path>
<path d="M1462 1498 c-30 -30 3 -77 40 -57 30 16 16 69 -17 69 -6 0 -16 -5
-23 -12z"></path>
<path d="M1112 1053 c-36 -17 -72 -58 -72 -79 0 -18 18 -17 50 1 33 19 91 19
140 -1 48 -19 58 -14 40 22 -31 58 -104 84 -158 57z"></path>
<path d="M789 981 c-34 -34 -53 -81 -32 -81 4 0 31 12 60 27 48 25 55 27 105
16 29 -6 56 -9 60 -6 14 8 -23 51 -57 67 -56 27 -92 21 -136 -23z"></path>
<path d="M1392 1003 c-32 -16 -70 -59 -60 -68 2 -3 29 1 60 7 52 11 59 10 112
-16 32 -16 60 -26 63 -22 11 10 -19 66 -49 91 -35 29 -78 32 -126 8z"></path>
</g>
</svg><style>@media (prefers-color-scheme: light) { :root { filter: none; } }
</style></svg>